# xmcd CD database file
#
# Track frame offsets:
#	150
#	5341
#	34480
#	65067
#	87114
#
# Disc length: 1448 seconds
#
# Revision: 0
# Processed by: cddbd v1.5.1PL0 Copyright (c) Steve Scherf et al.
# Submitted via: CDex 1.51
#
DISCID=3a05a605
DTITLE=わっこ - わっこのうた
DYEAR=2004
DGENRE=Acoustic
TTITLE0=歌ウコトノハ
TTITLE1=春想歌〜シュンソウカ〜
TTITLE2=みんな誰かにとって大切な人
TTITLE3=おうち
TTITLE4=せつない恋のメロディ
EXTD=YEAR: 2004
EXTT0=
EXTT1=
EXTT2=
EXTT3=
EXTT4=
PLAYORDER=
